<?xml version="1.0" standalone="no"?>
<!DOCTYPE svg PUBLIC "-//W3C//DTD SVG 20010904//EN"
 "http://www.w3.org/TR/2001/REC-SVG-20010904/DTD/svg10.dtd">
<svg version="1.0" xmlns="http://www.w3.org/2000/svg"
 width="16.000000pt" height="16.000000pt" viewBox="0 0 16.000000 16.000000"
 preserveAspectRatio="xMidYMid meet">

<g transform="translate(0.000000,16.000000) scale(0.100000,-0.100000)"
fill="#000000" stroke="none">
<path d="M0 80 l0 -80 80 0 80 0 0 80 0 80 -80 0 -80 0 0 -80z m94 54 c17 -7
22 -54 6 -54 -5 0 -10 6 -10 13 0 8 -4 7 -10 -3 -8 -13 -10 -13 -10 2 0 9 8
19 18 21 13 4 11 5 -5 6 -18 1 -23 -4 -23 -23 0 -19 6 -26 28 -29 25 -4 25 -4
-5 -6 -31 -1 -33 1 -33 33 0 19 6 37 13 39 6 3 13 6 14 6 1 1 8 -2 17 -5z m32
-91 c-7 -7 -97 -5 -105 3 -2 2 22 4 54 4 32 0 55 -3 51 -7z"/>
</g>
</svg>
