<svg width="128" height="128" viewBox="0 0 128 128" xmlns="http://www.w3.org/2000/svg">
  <!-- Background circle -->
  <circle cx="64" cy="64" r="56" fill="#667eea" stroke="#4338ca" stroke-width="4"/>
  
  <!-- Chat bubble icon -->
  <path d="M32 45c0-6.627 5.373-12 12-12h40c6.627 0 12 5.373 12 12v26c0 6.627-5.373 12-12 12H56l-12 8v-8h-0c-6.627 0-12-5.373-12-12V45z" 
        fill="white" opacity="0.9"/>
  
  <!-- Text lines inside bubble -->
  <rect x="40" y="53" width="24" height="2" fill="#667eea" rx="1"/>
  <rect x="40" y="59" width="32" height="2" fill="#667eea" rx="1"/>
  <rect x="40" y="65" width="20" height="2" fill="#667eea" rx="1"/>
  
  <!-- Lightning bolt for quick action -->
  <path d="M76 41l-8 12h6l-4 10 8-12h-6l4-10z" fill="#fbbf24" stroke="#f59e0b" stroke-width="1"/>
</svg> 