<?xml version="1.0" standalone="no"?>
<!DOCTYPE svg PUBLIC "-//W3C//DTD SVG 20010904//EN"
 "http://www.w3.org/TR/2001/REC-SVG-20010904/DTD/svg10.dtd">
<svg version="1.0" xmlns="http://www.w3.org/2000/svg"
 width="32.000000pt" height="32.000000pt" viewBox="0 0 32.000000 32.000000"
 preserveAspectRatio="xMidYMid meet">

<g transform="translate(0.000000,32.000000) scale(0.100000,-0.100000)"
fill="#000000" stroke="none">
<path d="M0 160 l0 -160 160 0 160 0 0 160 0 160 -160 0 -160 0 0 -160z m175
110 c3 -5 15 -10 25 -10 22 0 28 -18 26 -85 l-1 -50 -65 0 -65 0 -3 44 c-5 62
4 91 28 91 10 0 22 5 25 10 3 6 10 10 15 10 5 0 12 -4 15 -10z m23 -170 c53
-2 72 -7 72 -16 0 -17 -32 -18 -49 -1 -10 8 -12 8 -7 0 8 -15 -10 -27 -19 -12
-4 6 -18 8 -32 4 -18 -4 -23 -2 -17 6 4 7 3 9 -3 6 -6 -4 -29 -9 -52 -12 -35
-4 -41 -2 -41 13 0 14 8 17 38 16 20 -1 70 -3 110 -4z"/>
<path d="M114 241 c-2 -2 -4 -28 -4 -58 l0 -53 50 0 c50 0 50 0 49 33 0 28 -1
29 -9 11 -14 -35 -27 -36 -26 -1 2 43 15 64 28 46 7 -11 8 -9 6 5 -2 15 -12
19 -46 20 -24 0 -46 -1 -48 -3z m46 -21 c0 -5 -9 -10 -20 -10 -11 0 -20 5 -20
10 0 6 9 10 20 10 11 0 20 -4 20 -10z m-7 -27 c-7 -2 -19 -2 -25 0 -7 3 -2 5
12 5 14 0 19 -2 13 -5z m10 -20 c-7 -2 -21 -2 -30 0 -10 3 -4 5 12 5 17 0 24
-2 18 -5z m-10 -20 c-7 -2 -19 -2 -25 0 -7 3 -2 5 12 5 14 0 19 -2 13 -5z"/>
</g>
</svg>
