<?xml version="1.0" standalone="no"?>
<!DOCTYPE svg PUBLIC "-//W3C//DTD SVG 20010904//EN"
 "http://www.w3.org/TR/2001/REC-SVG-20010904/DTD/svg10.dtd">
<svg version="1.0" xmlns="http://www.w3.org/2000/svg"
 width="48.000000pt" height="48.000000pt" viewBox="0 0 48.000000 48.000000"
 preserveAspectRatio="xMidYMid meet">

<g transform="translate(0.000000,48.000000) scale(0.100000,-0.100000)"
fill="#000000" stroke="none">
<path d="M0 240 l0 -240 240 0 240 0 0 240 0 240 -240 0 -240 0 0 -240z m273
156 c31 -24 20 -36 -33 -36 -31 0 -50 4 -50 11 0 15 31 38 50 38 8 0 23 -6 33
-13z m-93 -16 c0 -5 -4 -10 -10 -10 -6 0 -10 -35 -10 -85 l0 -85 80 0 80 0 0
45 c0 25 5 45 10 45 14 0 12 -84 -2 -98 -7 -7 -44 -12 -94 -12 -65 0 -83 3
-88 16 -11 29 -7 169 6 182 15 15 28 16 28 2z m148 -2 c15 -15 16 -82 2 -73
-5 3 -10 19 -10 36 0 16 -4 29 -10 29 -5 0 -10 5 -10 10 0 14 13 13 28 -2z
m-78 -48 c0 -5 -16 -10 -35 -10 -19 0 -35 5 -35 10 0 6 16 10 35 10 19 0 35
-4 35 -10z m59 -12 c10 -16 10 -23 2 -26 -6 -2 -11 -11 -11 -21 0 -19 -39 -65
-48 -56 -3 3 0 11 6 17 16 16 15 55 0 61 -9 3 -8 10 6 26 24 26 28 26 45 -1z
m-69 -18 c0 -5 -13 -10 -30 -10 -16 0 -30 5 -30 10 0 6 14 10 30 10 17 0 30
-4 30 -10z m15 -30 c4 -6 -10 -10 -35 -10 -25 0 -39 4 -35 10 3 6 19 10 35 10
16 0 32 -4 35 -10z m-27 -37 c-10 -2 -26 -2 -35 0 -10 3 -2 5 17 5 19 0 27 -2
18 -5z m-138 -81 c0 -4 9 -8 20 -8 11 0 20 4 20 9 0 5 14 6 33 2 43 -9 170
-10 185 -1 8 5 12 -2 11 -21 0 -15 -3 -23 -6 -16 -3 9 -11 7 -25 -7 -21 -19
-21 -19 -40 2 -12 14 -18 17 -18 7 0 -11 -2 -11 -10 1 -6 10 -10 11 -10 3 0
-21 -50 -16 -51 5 -1 16 -2 16 -6 0 -5 -19 -23 -25 -23 -8 0 6 -9 5 -21 -2
-17 -10 -23 -10 -26 0 -3 6 -9 12 -14 12 -6 0 -7 -4 -4 -10 3 -5 -3 -10 -14
-10 -16 0 -21 6 -21 25 0 14 5 25 10 25 6 0 10 -4 10 -8z m299 -24 c1 17 21
15 21 -3 0 -8 -9 -15 -20 -15 -14 0 -20 6 -19 23 0 21 1 21 9 2 5 -11 9 -14 9
-7z"/>
</g>
</svg>
