<?xml version="1.0" standalone="no"?>
<!DOCTYPE svg PUBLIC "-//W3C//DTD SVG 20010904//EN"
 "http://www.w3.org/TR/2001/REC-SVG-20010904/DTD/svg10.dtd">
<svg version="1.0" xmlns="http://www.w3.org/2000/svg"
 width="128.000000pt" height="128.000000pt" viewBox="0 0 128.000000 128.000000"
 preserveAspectRatio="xMidYMid meet">

<g transform="translate(0.000000,128.000000) scale(0.100000,-0.100000)"
fill="#000000" stroke="none">
<path d="M0 640 l0 -640 640 0 640 0 0 640 0 640 -640 0 -640 0 0 -640z m696
435 c14 -14 36 -25 49 -25 22 0 25 -4 25 -39 0 -49 -6 -51 -130 -51 -124 0
-130 2 -130 51 0 35 3 39 25 39 13 0 35 11 49 25 16 16 36 25 56 25 20 0 40
-9 56 -25z m-211 -70 c0 -14 -8 -21 -28 -23 l-27 -3 2 -222 3 -222 205 0 205
0 3 113 c1 61 7 112 12 112 5 0 14 9 19 19 8 14 6 25 -9 44 -15 19 -20 41 -20
90 0 64 -1 66 -27 69 -20 2 -28 9 -28 23 0 32 49 32 80 1 l25 -25 0 -226 c0
-299 21 -278 -284 -273 -194 3 -198 3 -217 27 -17 21 -19 42 -19 248 l0 224
25 25 c31 31 80 31 80 -1z m375 -212 c0 -8 -13 -13 -30 -13 -27 0 -30 -3 -30
-33 0 -51 -49 -137 -92 -161 -46 -26 -60 -15 -26 22 28 29 48 87 48 140 0 29
-3 32 -29 32 -17 0 -32 4 -35 8 -2 4 19 34 47 66 l51 59 48 -54 c26 -30 48
-60 48 -66z m-202 85 c3 -16 -6 -18 -87 -18 -69 0 -91 3 -91 13 0 24 13 28 94
25 68 -3 81 -6 84 -20z m-18 -83 c0 -12 -16 -15 -80 -15 -64 0 -80 3 -80 15 0
12 16 15 80 15 64 0 80 -3 80 -15z m46 -76 c13 -21 -21 -29 -111 -27 -76 3
-90 6 -93 21 -3 15 7 17 97 17 62 0 102 -4 107 -11z m-46 -89 c0 -18 -7 -20
-74 -20 -41 0 -78 5 -81 10 -13 22 9 30 81 30 67 0 74 -2 74 -20z m-410 -275
c0 -51 -3 -65 -15 -65 -12 0 -15 14 -15 65 0 51 3 65 15 65 12 0 15 -14 15
-65z m222 40 c9 -21 8 -28 -7 -45 -10 -11 -26 -20 -37 -20 -11 0 -18 -7 -18
-20 0 -11 -7 -20 -15 -20 -12 0 -15 14 -15 65 l0 65 40 0 c33 0 42 -4 52 -25z
m498 11 c0 -8 6 -16 13 -19 10 -4 10 -7 0 -18 -18 -18 -16 -44 2 -59 19 -16 5
-33 -18 -24 -18 6 -34 50 -23 61 3 3 1 13 -6 20 -9 11 -9 17 3 24 8 5 10 9 6
9 -11 0 2 20 14 20 5 0 9 -6 9 -14z m-612 -68 c2 -38 0 -48 -12 -48 -12 0 -16
11 -16 41 0 52 -24 48 -28 -4 -2 -24 -8 -37 -18 -37 -10 0 -14 13 -14 49 l0
49 43 -2 42 -1 3 -47z m192 42 c0 -4 -7 -10 -15 -14 -9 -3 -15 -19 -15 -41 0
-24 -4 -35 -15 -35 -11 0 -15 12 -15 48 0 47 1 49 30 50 17 0 30 -3 30 -8z
m90 -9 c17 -32 11 -60 -15 -77 -23 -15 -27 -15 -50 0 -27 18 -34 63 -13 84 19
19 66 15 78 -7z m168 -33 c2 -37 0 -48 -12 -48 -10 0 -16 12 -18 38 -2 20 -7
37 -13 37 -5 0 -11 -17 -13 -37 -2 -24 -8 -38 -17 -38 -9 0 -15 14 -17 38 -2
20 -7 37 -13 37 -5 0 -11 -17 -13 -37 -2 -25 -8 -38 -18 -38 -10 0 -14 13 -14
49 l0 48 73 -1 72 -1 3 -47z m103 36 c30 -36 -1 -102 -43 -88 -13 4 -18 0 -18
-15 0 -12 -7 -21 -15 -21 -12 0 -15 14 -15 69 l0 69 39 0 c23 0 45 -5 52 -14z
m127 -27 c5 -53 32 -50 32 3 0 29 4 40 15 40 11 0 15 -12 15 -49 0 -46 -1 -49
-29 -53 -47 -7 -61 7 -61 58 0 56 23 56 28 1z"/>
<path d="M390 380 c0 -15 5 -20 18 -18 9 2 17 10 17 18 0 8 -8 16 -17 18 -13
2 -18 -3 -18 -18z"/>
<path d="M567 364 c-4 -4 -7 -18 -7 -31 0 -18 5 -24 18 -21 10 2 17 12 17 27
0 24 -15 37 -28 25z"/>
<path d="M834 356 c-9 -22 2 -46 21 -46 12 0 15 8 13 27 -3 30 -25 42 -34 19z"/>
</g>
</svg>
